<svg width="47" height="47" viewBox="0 0 47 47" fill="none" xmlns="http://www.w3.org/2000/svg">
<path d="M40.0625 23.5C38.8833 23.5061 37.7276 23.83 36.7169 24.4375L31.9817 19.7022L35.7794 15.9045C36.4004 15.2833 36.7493 14.4409 36.7493 13.5625C36.7493 12.6842 36.4004 11.8418 35.7794 11.2206L25.8419 1.28309C25.2207 0.66209 24.3784 0.313232 23.5 0.313232C22.6216 0.313232 21.7792 0.66209 21.1581 1.28309L11.2206 11.2206C10.5996 11.8418 10.2507 12.6842 10.2507 13.5625C10.2507 14.4409 10.5996 15.2833 11.2206 15.9045L15.0183 19.7022L10.2831 24.4375C8.88008 23.605 7.22139 23.3134 5.61854 23.6173C4.01569 23.9213 2.57894 24.8 1.57811 26.0884C0.57728 27.3767 0.0812142 28.9861 0.18307 30.6144C0.284925 32.2426 0.977695 33.7777 2.13128 34.9312C3.28487 36.0848 4.81992 36.7776 6.44816 36.8795C8.07639 36.9813 9.68581 36.4852 10.9742 35.4844C12.2625 34.4836 13.1412 33.0468 13.4452 31.444C13.7492 29.8411 13.4575 28.1824 12.6251 26.7794L17.3603 22.0442L21.1581 25.842C21.3632 26.0424 21.5937 26.215 21.8437 26.3554V33.4375H16.875V46.6875H30.125V33.4375H25.1562V26.3537C25.4062 26.2139 25.6367 26.0418 25.8419 25.842L29.6397 22.0442L34.3749 26.7794C33.6414 28.0376 33.3442 29.503 33.5296 30.9476C33.7149 32.3922 34.3724 33.735 35.3998 34.7673C36.4272 35.7996 37.7669 36.4635 39.2106 36.6558C40.6543 36.848 42.1211 36.5578 43.3828 35.8303C44.6445 35.1028 45.6305 33.9788 46.1874 32.633C46.7443 31.2873 46.8409 29.7952 46.4622 28.3889C46.0835 26.9826 45.2507 25.7408 44.0934 24.8566C42.936 23.9725 41.5189 23.4956 40.0625 23.5V23.5ZM10.25 30.125C10.25 30.7802 10.0557 31.4206 9.69174 31.9654C9.32776 32.5101 8.81042 32.9347 8.20514 33.1854C7.59986 33.4361 6.93382 33.5017 6.29126 33.3739C5.6487 33.2461 5.05847 32.9306 4.5952 32.4673C4.13194 32.0041 3.81646 31.4138 3.68864 30.7713C3.56083 30.1287 3.62643 29.4627 3.87714 28.8574C4.12786 28.2521 4.55243 27.7348 5.09717 27.3708C5.64191 27.0068 6.28235 26.8125 6.9375 26.8125C7.81576 26.8134 8.65779 27.1627 9.27882 27.7837C9.89984 28.4047 10.2491 29.2468 10.25 30.125ZM26.8125 36.75V43.375H20.1875V36.75H26.8125ZM23.5 23.5L13.5625 13.5625L23.5 3.62503L33.4375 13.5625L23.5 23.5ZM40.0625 33.4375C39.4073 33.4375 38.7669 33.2433 38.2222 32.8793C37.6774 32.5153 37.2529 31.9979 37.0021 31.3927C36.7514 30.7874 36.6858 30.1214 36.8136 29.4788C36.9415 28.8362 37.2569 28.246 37.7202 27.7827C38.1835 27.3195 38.7737 27.004 39.4163 26.8762C40.0588 26.7484 40.7249 26.814 41.3301 27.0647C41.9354 27.3154 42.4528 27.74 42.8167 28.2847C43.1807 28.8294 43.375 29.4699 43.375 30.125C43.3741 31.0033 43.0248 31.8453 42.4038 32.4664C41.7828 33.0874 40.9408 33.4367 40.0625 33.4375Z" fill="#40E03D"/>
</svg>
