<svg width="45" height="45" viewBox="0 0 45 45" fill="none" xmlns="http://www.w3.org/2000/svg">
<path d="M22.5 0.416626C18.1323 0.416626 13.8627 1.71179 10.2312 4.13834C6.59957 6.56489 3.7691 10.0138 2.09766 14.049C0.426225 18.0842 -0.0110988 22.5245 0.840992 26.8082C1.69308 31.0919 3.79632 35.0268 6.88472 38.1152C9.97313 41.2036 13.908 43.3069 18.1918 44.159C22.4755 45.0111 26.9157 44.5737 30.9509 42.9023C34.9861 41.2309 38.4351 38.4004 40.8616 34.7688C43.2882 31.1372 44.5833 26.8676 44.5833 22.5C44.5833 19.5999 44.0121 16.7283 42.9023 14.049C41.7925 11.3698 40.1659 8.93531 38.1153 6.88468C36.0646 4.83406 33.6302 3.20741 30.9509 2.09762C28.2717 0.987828 25.4 0.416626 22.5 0.416626V0.416626ZM22.5 40.1666C19.0059 40.1666 15.5902 39.1305 12.6849 37.1893C9.77966 35.248 7.51528 32.4889 6.17813 29.2607C4.84098 26.0325 4.49112 22.4804 5.17279 19.0534C5.85447 15.6264 7.53705 12.4785 10.0078 10.0077C12.4785 7.53701 15.6264 5.85443 19.0534 5.17275C22.4804 4.49108 26.0326 4.84094 29.2607 6.17809C32.4889 7.51524 35.2481 9.77962 37.1893 12.6849C39.1305 15.5902 40.1667 19.0058 40.1667 22.5C40.1667 27.1854 38.3054 31.679 34.9922 34.9922C31.6791 38.3053 27.1855 40.1666 22.5 40.1666V40.1666Z" fill="#40E03D"/>
<path d="M28.5729 13.6666H16.4271C15.695 13.6666 14.9929 13.9575 14.4752 14.4751C13.9575 14.9928 13.6667 15.6949 13.6667 16.427V28.5729C13.6667 29.305 13.9575 30.0071 14.4752 30.5248C14.9929 31.0425 15.695 31.3333 16.4271 31.3333H28.5729C29.305 31.3333 30.0071 31.0425 30.5248 30.5248C31.0425 30.0071 31.3333 29.305 31.3333 28.5729V16.427C31.3333 15.6949 31.0425 14.9928 30.5248 14.4751C30.0071 13.9575 29.305 13.6666 28.5729 13.6666ZM26.9167 26.9166H18.0833V18.0833H26.9167V26.9166Z" fill="#40E03D"/>
</svg>
