<svg width="39" height="45" viewBox="0 0 39 45" fill="none" xmlns="http://www.w3.org/2000/svg">
<g clip-path="url(#clip0_10_46)">
<path d="M37.7741 5.7956L33.2581 1.23565C32.4745 0.444484 31.4118 5.85067e-06 30.3037 0L15.3218 0C13.0143 0 11.1437 1.88877 11.1437 4.21875V8.4375H4.18017C1.87263 8.4375 0.00204849 10.3263 0.00204849 12.6562V40.7812C0.00204849 43.1112 1.87263 45 4.18017 45H23.6781C25.9856 45 27.8562 43.1112 27.8562 40.7812V36.5625H34.8197C37.1273 36.5625 38.9978 34.6737 38.9978 32.3438V8.77869C38.9978 7.65981 38.5576 6.58676 37.7741 5.7956ZM23.1558 40.7812H4.70243C4.56392 40.7812 4.43108 40.7257 4.33314 40.6268C4.23519 40.5279 4.18017 40.3938 4.18017 40.2539V13.1836C4.18017 13.0437 4.23519 12.9096 4.33314 12.8107C4.43108 12.7118 4.56392 12.6562 4.70243 12.6562H11.1437V32.3438C11.1437 34.6737 13.0143 36.5625 15.3218 36.5625H23.6781V40.2539C23.6781 40.3938 23.623 40.5279 23.5251 40.6268C23.4272 40.7257 23.2943 40.7812 23.1558 40.7812ZM34.2975 32.3438H15.8441C15.7056 32.3438 15.5727 32.2882 15.4748 32.1893C15.3768 32.0904 15.3218 31.9563 15.3218 31.8164V4.74609C15.3218 4.60623 15.3768 4.4721 15.4748 4.37321C15.5727 4.27431 15.7056 4.21875 15.8441 4.21875H25.0708V11.9531C25.0708 13.1181 26.0061 14.0625 27.1598 14.0625H34.8197V31.8164C34.8197 31.9563 34.7647 32.0904 34.6668 32.1893C34.5688 32.2882 34.436 32.3438 34.2975 32.3438V32.3438ZM34.8197 9.84375H29.2489V4.21875H30.0873C30.2258 4.21875 30.3586 4.2743 30.4566 4.37317L34.6668 8.62427C34.7153 8.67324 34.7537 8.73138 34.78 8.79537C34.8062 8.85935 34.8197 8.92793 34.8197 8.99719V9.84375Z" fill="#40E03D"/>
</g>
<defs>
<clipPath id="clip0_10_46">
<rect width="39" height="45" fill="white"/>
</clipPath>
</defs>
</svg>
