<svg width="58" height="58" viewBox="0 0 58 58" fill="none" xmlns="http://www.w3.org/2000/svg">
<path d="M34.6667 29L23.3333 17.6667V26.1667H0.666668V31.8333H23.3333V40.3333L34.6667 29ZM57.3333 29C57.3346 35.7703 54.9116 42.3173 50.503 47.4554C46.0943 52.5936 39.9916 55.9833 33.2997 57.0107C26.6078 58.0381 19.7692 56.6353 14.0222 53.0564C8.27525 49.4774 3.99978 43.9589 1.97 37.5H8.005C9.97758 42.3764 13.5847 46.4148 18.2083 48.9233C22.8319 51.4318 28.1839 52.2541 33.3473 51.2493C38.5106 50.2445 43.1638 47.4752 46.5093 43.4159C49.8547 39.3567 51.6842 34.2602 51.6842 29C51.6842 23.7398 49.8547 18.6434 46.5093 14.5841C43.1638 10.5248 38.5106 7.7555 33.3473 6.75071C28.1839 5.74592 22.8319 6.56823 18.2083 9.07672C13.5847 11.5852 9.97758 15.6237 8.005 20.5H1.97C3.99978 14.0412 8.27525 8.52262 14.0222 4.94366C19.7692 1.36471 26.6078 -0.0380696 33.2997 0.989342C39.9916 2.01675 46.0943 5.40643 50.503 10.5446C54.9116 15.6828 57.3346 22.2297 57.3333 29V29Z" fill="#40E03D"/>
</svg>
