<svg width="32" height="32" viewBox="0 0 32 32" fill="none" xmlns="http://www.w3.org/2000/svg">
<path d="M28 12C28.5304 12 29.0391 11.7893 29.4142 11.4142C29.7893 11.0391 30 10.5304 30 10V4C30 3.46957 29.7893 2.96086 29.4142 2.58579C29.0391 2.21071 28.5304 2 28 2H4C3.46957 2 2.96086 2.21071 2.58579 2.58579C2.21071 2.96086 2 3.46957 2 4V10C2 10.5304 2.21071 11.0391 2.58579 11.4142C2.96086 11.7893 3.46957 12 4 12H15V16H9C8.46957 16 7.96086 16.2107 7.58579 16.5858C7.21071 16.9609 7 17.4696 7 18V22H4C3.46957 22 2.96086 22.2107 2.58579 22.5858C2.21071 22.9609 2 23.4696 2 24V28C2 28.5304 2.21071 29.0391 2.58579 29.4142C2.96086 29.7893 3.46957 30 4 30H12C12.5304 30 13.0391 29.7893 13.4142 29.4142C13.7893 29.0391 14 28.5304 14 28V24C14 23.4696 13.7893 22.9609 13.4142 22.5858C13.0391 22.2107 12.5304 22 12 22H9V18H23V22H20C19.4696 22 18.9609 22.2107 18.5858 22.5858C18.2107 22.9609 18 23.4696 18 24V28C18 28.5304 18.2107 29.0391 18.5858 29.4142C18.9609 29.7893 19.4696 30 20 30H28C28.5304 30 29.0391 29.7893 29.4142 29.4142C29.7893 29.0391 30 28.5304 30 28V24C30 23.4696 29.7893 22.9609 29.4142 22.5858C29.0391 22.2107 28.5304 22 28 22H25V18C25 17.4696 24.7893 16.9609 24.4142 16.5858C24.0391 16.2107 23.5304 16 23 16H17V12H28ZM12 28H4V24H12V28ZM28 28H20V24H28V28ZM4 4H28V10H4V4Z" fill="#40E03D"/>
</svg>
